# xmcd
# Copyright (C) 1995-1998 Ti Kan
#
# Track frame offsets:
#       150
#       24427
#       40280
#       63440
#       86010
#       106195
#       125978
#       148348
#
# Disc length: 2175 seconds
#
# Revision: 0
# Processed by: cddbd v1.5.2PL0 Copyright (c) Steve Scherf et al.
# Submitted via: CD-Import v1.0
#
DISCID=72087d08
DTITLE=Disown - Rest For The Cockatoos
DYEAR=08
DGENRE=
TTITLE0=Reasing Way
TTITLE1=Cleopatra
TTITLE2=Towards The Arch
TTITLE3=Head Astray
TTITLE4=Southern Light
TTITLE5=Rest For The Cockatoos
TTITLE6=Alike
TTITLE7=Crossing Paths
EXTD=
EXTT0=
EXTT1=
EXTT2=
EXTT3=
EXTT4=
EXTT5=
EXTT6=
EXTT7=
PLAYORDER=
